<svg width="24" height="24" viewBox="0 0 24 24" fill="none" xmlns="http://www.w3.org/2000/svg">
<path d="M17.5 8.5246H20.0907C20.5358 8.5246 20.759 9.06245 20.4447 9.37764L12.3541 17.4916C12.1587 17.6875 11.8413 17.6875 11.6459 17.4916L3.55526 9.37764C3.24097 9.06245 3.46421 8.5246 3.90932 8.5246H6.5C7.32843 8.5246 8 7.85302 8 7.0246V1.12695C8 0.850811 8.22386 0.626953 8.5 0.626953H15.5C15.7761 0.626953 16 0.850811 16 1.12695V7.0246C16 7.85302 16.6716 8.5246 17.5 8.5246ZM1 21.6873H23C23.2761 21.6873 23.5 21.9112 23.5 22.1873V22.8199C23.5 23.096 23.2761 23.3199 23 23.3199H1C0.723858 23.3199 0.5 23.096 0.5 22.8199V22.1873C0.5 21.9112 0.723858 21.6873 1 21.6873Z" fill="#F5F5F5" stroke="#FFB800"/>
</svg>
