<svg width="23" height="25" viewBox="0 0 23 25" fill="none" xmlns="http://www.w3.org/2000/svg">
<path d="M19.2841 9.95262C19.8499 9.30604 19.3907 8.29412 18.5315 8.29412H16.2059C15.6536 8.29412 15.2059 7.8464 15.2059 7.29412V1C15.2059 0.447715 14.7582 0 14.2059 0H7.91176C7.35948 0 6.91176 0.447715 6.91176 1V7.29412C6.91176 7.8464 6.46405 8.29412 5.91176 8.29412H3.58612C2.72696 8.29412 2.26778 9.30604 2.83354 9.95262L10.3062 18.4929C10.7047 18.9482 11.413 18.9482 11.8114 18.4929L19.2841 9.95262ZM0 23.1176C0 22.5654 0.447715 22.1176 1 22.1176H21.1176C21.6699 22.1176 22.1176 22.5654 22.1176 23.1176V23.8824C22.1176 24.4346 21.6699 24.8824 21.1176 24.8824H0.999998C0.447714 24.8824 0 24.4346 0 23.8824V23.1176Z" fill="#FFB800"/>
</svg>
