<svg width="17" height="17" viewBox="0 0 17 17" fill="none" xmlns="http://www.w3.org/2000/svg">
<path d="M17 8.5C17 9.17063 16.4563 9.71429 15.7857 9.71429H11.7143C10.6097 9.71429 9.71429 10.6097 9.71429 11.7143V15.7857C9.71429 16.4563 9.17063 17 8.5 17V17C7.82937 17 7.28571 16.4563 7.28571 15.7857V11.7143C7.28571 10.6097 6.39028 9.71429 5.28571 9.71429H1.21428C0.543653 9.71429 0 9.17063 0 8.5V8.5C0 7.82937 0.543654 7.28571 1.21429 7.28571H5.28572C6.39029 7.28571 7.28571 6.39028 7.28571 5.28571V1.21428C7.28571 0.543653 7.82937 0 8.5 0V0C9.17063 0 9.71429 0.543654 9.71429 1.21429V5.28572C9.71429 6.39029 10.6097 7.28571 11.7143 7.28571H15.7857C16.4563 7.28571 17 7.82937 17 8.5V8.5Z" fill="#FFB800"/>
</svg>
