<svg width="35" height="35" viewBox="0 0 35 35" fill="none" xmlns="http://www.w3.org/2000/svg">
<path d="M17.5 3.5C25.2175 3.5 31.5 9.7825 31.5 17.5C31.5 25.2175 25.2175 31.5 17.5 31.5C9.7825 31.5 3.5 25.2175 3.5 17.5C3.5 9.7825 9.7825 3.5 17.5 3.5ZM17.5 0C7.83475 0 0 7.83475 0 17.5C0 27.1652 7.83475 35 17.5 35C27.1652 35 35 27.1652 35 17.5C35 7.83475 27.1652 0 17.5 0ZM26.25 17.5C26.25 16.5335 25.4665 15.75 24.5 15.75H21.25C20.1454 15.75 19.25 14.8546 19.25 13.75V10.5C19.25 9.5335 18.4665 8.75 17.5 8.75V8.75C16.5335 8.75 15.75 9.5335 15.75 10.5V13.75C15.75 14.8546 14.8546 15.75 13.75 15.75H10.5C9.5335 15.75 8.75 16.5335 8.75 17.5V17.5C8.75 18.4665 9.5335 19.25 10.5 19.25H13.75C14.8546 19.25 15.75 20.1454 15.75 21.25V24.5C15.75 25.4665 16.5335 26.25 17.5 26.25V26.25C18.4665 26.25 19.25 25.4665 19.25 24.5V21.25C19.25 20.1454 20.1454 19.25 21.25 19.25H24.5C25.4665 19.25 26.25 18.4665 26.25 17.5V17.5Z" fill="#FFB800"/>
</svg>
