<svg width="24" height="24" viewBox="0 0 24 24" fill="none" xmlns="http://www.w3.org/2000/svg">
<circle cx="12" cy="12" r="11.5" fill="black" fill-opacity="0.5" stroke="#E7E7E7"/>
<path d="M17.143 11.9998C17.143 12.3896 16.8269 12.7057 16.4371 12.7057H14.0287C13.4764 12.7057 13.0287 13.1534 13.0287 13.7057V16.2552C13.0287 16.6339 12.7217 16.9409 12.343 16.9409C11.9643 16.9409 11.6573 16.6339 11.6573 16.2552V13.7057C11.6573 13.1534 11.2095 12.7057 10.6573 12.7057H8.24885C7.859 12.7057 7.54297 12.3896 7.54297 11.9998C7.54297 11.6099 7.859 11.2939 8.24885 11.2939H10.6573C11.2095 11.2939 11.6573 10.8462 11.6573 10.2939V7.74431C11.6573 7.3656 11.9643 7.05859 12.343 7.05859C12.7217 7.05859 13.0287 7.3656 13.0287 7.74431V10.2939C13.0287 10.8462 13.4764 11.2939 14.0287 11.2939H16.4371C16.8269 11.2939 17.143 11.6099 17.143 11.9998Z" fill="#F5F5F5"/>
</svg>
