<svg width="50" height="48" viewBox="0 0 50 48" fill="none" xmlns="http://www.w3.org/2000/svg">
<path d="M48.9118 24C48.9118 36.9651 38.0882 47.5 24.7059 47.5C11.3236 47.5 0.5 36.9651 0.5 24C0.5 11.0349 11.3236 0.5 24.7059 0.5C38.0882 0.5 48.9118 11.0349 48.9118 24Z" fill="black" fill-opacity="0.58" stroke="#E7E7E7"/>
<path d="M37 24C37 24.9468 36.2325 25.7143 35.2857 25.7143H28.7143C27.6097 25.7143 26.7143 26.6097 26.7143 27.7143V34.2857C26.7143 35.2325 25.9468 36 25 36C24.0532 36 23.2857 35.2325 23.2857 34.2857V27.7143C23.2857 26.6097 22.3903 25.7143 21.2857 25.7143H14.7143C13.7675 25.7143 13 24.9468 13 24C13 23.0532 13.7675 22.2857 14.7143 22.2857H21.2857C22.3903 22.2857 23.2857 21.3903 23.2857 20.2857V13.7143C23.2857 12.7675 24.0532 12 25 12C25.9468 12 26.7143 12.7675 26.7143 13.7143V20.2857C26.7143 21.3903 27.6097 22.2857 28.7143 22.2857H35.2857C36.2325 22.2857 37 23.0532 37 24Z" fill="#E6E6E6"/>
</svg>
