<svg width="50" height="48" viewBox="0 0 50 48" fill="none" xmlns="http://www.w3.org/2000/svg">
<path d="M48.9118 24C48.9118 36.9651 38.0882 47.5 24.7059 47.5C11.3236 47.5 0.5 36.9651 0.5 24C0.5 11.0349 11.3236 0.5 24.7059 0.5C38.0882 0.5 48.9118 11.0349 48.9118 24Z" fill="black" fill-opacity="0.58" stroke="#E7E7E7"/>
<path d="M36.8781 31.0562L33.4312 29.0656C33.3746 29.0332 33.3122 29.0122 33.2474 29.004C33.1827 28.9957 33.117 29.0002 33.054 29.0174C32.991 29.0345 32.932 29.0638 32.8804 29.1038C32.8288 29.1437 32.7855 29.1934 32.7531 29.25L32.1313 30.3281C31.9938 30.5656 32.075 30.8719 32.3125 31.0094L35.7594 33C35.816 33.0324 35.8785 33.0534 35.9432 33.0617C36.0079 33.0699 36.0737 33.0654 36.1366 33.0483C36.1996 33.0312 36.2586 33.0018 36.3102 32.9619C36.3618 32.922 36.4051 32.8723 36.4375 32.8156L37.0594 31.7375C37.1969 31.5 37.1125 31.1938 36.8781 31.0562ZM32.75 18.75C32.7824 18.8066 32.8257 18.8563 32.8773 18.8963C32.9289 18.9362 32.9879 18.9655 33.0509 18.9826C33.1138 18.9998 33.1796 19.0043 33.2443 18.996C33.309 18.9878 33.3715 18.9668 33.4281 18.9344L36.875 16.9438C37.1125 16.8063 37.1938 16.5 37.0562 16.2625L36.4375 15.1875C36.4051 15.1309 36.3618 15.0812 36.3102 15.0412C36.2586 15.0013 36.1996 14.972 36.1366 14.9549C36.0737 14.9377 36.0079 14.9332 35.9432 14.9415C35.8785 14.9497 35.816 14.9707 35.7594 15.0031L32.3125 16.9937C32.1984 17.0603 32.1152 17.1693 32.0813 17.297C32.0473 17.4246 32.0653 17.5606 32.1313 17.675L32.75 18.75ZM38.1875 22.875H34.1875C33.9125 22.875 33.6875 23.1 33.6875 23.375V24.625C33.6875 24.9 33.9125 25.125 34.1875 25.125H38.1875C38.4625 25.125 38.6875 24.9 38.6875 24.625V23.375C38.6875 23.1 38.4625 22.875 38.1875 22.875ZM28.5594 11.5938C28.375 11.5938 28.1875 11.6438 28.0156 11.7594L16.9375 19H11.8125C11.5375 19 11.3125 19.225 11.3125 19.5V28.5C11.3125 28.775 11.5375 29 11.8125 29H16.9375L28.0156 36.2406C28.1875 36.3531 28.3781 36.4062 28.5594 36.4062C29.0813 36.4062 29.5625 35.9906 29.5625 35.4031V12.5969C29.5625 12.0094 29.0813 11.5938 28.5594 11.5938Z" fill="#E6E6E6"/>
</svg>
