<svg width="18" height="18" viewBox="0 0 18 18" fill="none" xmlns="http://www.w3.org/2000/svg">
<path d="M17.0781 6.029L12.1626 5.28026L9.96561 0.62615C9.57196 -0.203435 8.4314 -0.213981 8.03439 0.62615L5.83739 5.28026L0.921884 6.029C0.0403898 6.16257 -0.312881 7.29798 0.326371 7.94829L3.88263 11.5689L3.04151 16.6835C2.8901 17.608 3.82207 18.3005 4.60262 17.8682L9 15.4532L13.3974 17.8682C14.1779 18.297 15.1099 17.608 14.9585 16.6835L14.1174 11.5689L17.6736 7.94829C18.3129 7.29798 17.9596 6.16257 17.0781 6.029ZM12.3847 10.9784L13.182 15.8434L9 13.548L4.81795 15.8434L5.61533 10.9784L2.23067 7.5335L6.90729 6.82343L9 2.39429L11.0927 6.82343L15.7693 7.5335L12.3847 10.9784Z" fill="black" fill-opacity="0.58"/>
</svg>
