<svg width="44" height="28" viewBox="0 0 44 28" fill="none" xmlns="http://www.w3.org/2000/svg">
<path d="M22 0C12.4052 0 4.0865 5.588 0 13.75C4.0865 21.912 12.4052 27.5 22 27.5C31.5947 27.5 39.9135 21.912 44 13.75C39.9135 5.588 31.5947 0 22 0ZM32.8487 7.293C35.4337 8.943 37.6255 11.1512 39.27 13.75C37.6306 16.3485 35.4381 18.5532 32.8487 20.207C29.6094 22.2768 25.8455 23.3766 22.0014 23.3766C18.1572 23.3766 14.3934 22.2768 11.154 20.207C8.56586 18.5517 6.37362 16.3473 4.73275 13.75C6.48007 10.9811 8.85395 8.66189 11.6628 6.9795C11.0583 8.64118 10.8633 10.4241 11.0943 12.1771C11.3253 13.9302 11.9755 15.6017 12.9899 17.0501C14.0042 18.4984 15.3527 19.6809 16.9212 20.4973C18.4896 21.3137 20.2318 21.74 22 21.74C23.7682 21.74 25.5104 21.3137 27.0788 20.4973C28.6473 19.6809 29.9958 18.4984 31.0101 17.0501C32.0245 15.6017 32.6747 13.9302 32.9057 12.1771C33.1367 10.4241 32.9417 8.64118 32.3372 6.9795C32.5078 7.08125 32.6782 7.18575 32.846 7.293H32.8487ZM22 9.625C21.9996 10.7194 21.5645 11.7688 20.7904 12.5424C20.0163 13.316 18.9666 13.7504 17.8722 13.75C16.7779 13.7496 15.7285 13.3145 14.9549 12.5404C14.1813 11.7663 13.7469 10.7166 13.7473 9.62225C13.7476 8.52787 14.1827 7.47845 14.9568 6.70486C15.7309 5.93128 16.7806 5.49689 17.875 5.49725C18.9694 5.49761 20.0188 5.93271 20.7924 6.70681C21.566 7.48091 22.0004 8.53062 22 9.625Z" fill="#E6E6E6"/>
</svg>
