<svg width="113" height="18" viewBox="0 0 113 18" fill="none" xmlns="http://www.w3.org/2000/svg">
<path d="M8.8863 0C3.97615 0 0 4.0197 0 8.97253C0 13.9254 3.97615 17.9451 8.8863 17.9451C13.8053 17.9451 17.7904 13.9254 17.7904 8.97253C17.7904 4.0197 13.8053 0 8.8863 0ZM12.6579 14.3561L8.89519 12.0681L5.13252 14.3561L6.12879 10.0403L2.81088 7.14214L7.18731 6.76529L8.89519 2.69176L10.6031 6.75632L14.9795 7.13316L11.6616 10.0313L12.6579 14.3561Z" fill="#FFB800"/>
<path d="M32.6061 0C27.696 0 23.7198 4.0197 23.7198 8.97253C23.7198 13.9254 27.696 17.9451 32.6061 17.9451C37.5252 17.9451 41.5102 13.9254 41.5102 8.97253C41.5102 4.0197 37.5252 0 32.6061 0ZM36.3777 14.3561L32.615 12.0681L28.8524 14.3561L29.8486 10.0403L26.5307 7.14214L30.9072 6.76529L32.615 2.69176L34.3229 6.75632L38.6994 7.13316L35.3814 10.0313L36.3777 14.3561Z" fill="#FFB800"/>
<path d="M56.3276 0C51.4174 0 47.4413 4.0197 47.4413 8.97253C47.4413 13.9254 51.4174 17.9451 56.3276 17.9451C61.2466 17.9451 65.2317 13.9254 65.2317 8.97253C65.2317 4.0197 61.2466 0 56.3276 0ZM60.0991 14.3561L56.3365 12.0681L52.5738 14.3561L53.5701 10.0403L50.2522 7.14214L54.6286 6.76529L56.3365 2.69176L58.0444 6.75632L62.4208 7.13316L59.1029 10.0313L60.0991 14.3561Z" fill="#FFB800"/>
<path d="M80.0474 0C75.1373 0 71.1611 4.0197 71.1611 8.97253C71.1611 13.9254 75.1373 17.9451 80.0474 17.9451C84.9665 17.9451 88.9515 13.9254 88.9515 8.97253C88.9515 4.0197 84.9665 0 80.0474 0ZM83.819 14.3561L80.0563 12.0681L76.2937 14.3561L77.2899 10.0403L73.972 7.14214L78.3484 6.76529L80.0563 2.69176L81.7642 6.75632L86.1406 7.13316L82.8227 10.0313L83.819 14.3561Z" fill="#FFB800"/>
<path d="M103.769 0C98.8587 0 94.8826 4.0197 94.8826 8.97253C94.8826 13.9254 98.8587 17.9451 103.769 17.9451C108.688 17.9451 112.673 13.9254 112.673 8.97253C112.673 4.0197 108.688 0 103.769 0ZM107.54 14.3561L103.778 12.0681L100.015 14.3561L101.011 10.0403L97.6934 7.14214L102.07 6.76529L103.778 2.69176L105.486 6.75632L109.862 7.13316L106.544 10.0313L107.54 14.3561Z" fill="white"/>
</svg>
