<svg width="35" height="35" viewBox="0 0 35 35" fill="none" xmlns="http://www.w3.org/2000/svg">
<path d="M26.0625 12.1667H28.0373C29.368 12.1667 30.0398 13.7706 29.1063 14.7189L18.569 25.4235C17.9813 26.0205 17.0187 26.0205 16.431 25.4235L5.89369 14.7189C4.9602 13.7706 5.632 12.1667 6.96267 12.1667H8.9375C10.3182 12.1667 11.4375 11.0474 11.4375 9.66666V2C11.4375 1.17157 12.1091 0.5 12.9375 0.5H22.0625C22.8909 0.5 23.5625 1.17157 23.5625 2V9.66667C23.5625 11.0474 24.6818 12.1667 26.0625 12.1667ZM1.94444 31.6111H33.0556C33.8533 31.6111 34.5 32.2578 34.5 33.0556C34.5 33.8533 33.8533 34.5 33.0556 34.5H1.94444C1.1467 34.5 0.5 33.8533 0.5 33.0556C0.5 32.2578 1.1467 31.6111 1.94444 31.6111Z" fill="#FFB800" stroke="#FFB800"/>
</svg>
