<svg width="23" height="26" viewBox="0 0 23 26" fill="none" xmlns="http://www.w3.org/2000/svg">
<path d="M18.5398 9.75553C18.9687 9.75553 19.1985 10.2601 18.917 10.5837L11.4361 19.1822C11.2367 19.4113 10.8809 19.4113 10.6816 19.1822L3.20068 10.5837C2.91915 10.2601 3.14898 9.75553 3.57789 9.75553H5.91177C6.7402 9.75553 7.41177 9.08396 7.41177 8.25553V1.91406C7.41177 1.63792 7.63563 1.41406 7.91177 1.41406H14.2059C14.482 1.41406 14.7059 1.63792 14.7059 1.91406V8.25553C14.7059 9.08396 15.3775 9.75553 16.2059 9.75553H18.5398ZM0.5 24.158C0.5 23.8818 0.723858 23.658 1 23.658H21.1177C21.3938 23.658 21.6177 23.8818 21.6177 24.158V24.9385C21.6177 25.2146 21.3938 25.4385 21.1177 25.4385H1C0.723858 25.4385 0.5 25.2146 0.5 24.9385V24.158Z" fill="#F5F5F5" stroke="#FFB800"/>
</svg>
