<svg width="47" height="49" viewBox="0 0 47 49" fill="none" xmlns="http://www.w3.org/2000/svg">
<path d="M45.7734 30.7262L42.1914 27.6637C42.3609 26.6246 42.4484 25.5637 42.4484 24.5027C42.4484 23.4418 42.3609 22.3809 42.1914 21.3418L45.7734 18.2793C46.0436 18.048 46.237 17.7399 46.3278 17.3961C46.4187 17.0522 46.4027 16.6889 46.282 16.3543L46.2328 16.2121C45.2467 13.456 43.77 10.9011 41.8742 8.6707L41.7758 8.55586C41.5458 8.28544 41.2393 8.09105 40.8966 7.99831C40.554 7.90556 40.1912 7.91882 39.8563 8.03633L35.4102 9.6168C33.7695 8.27148 31.9375 7.21055 29.9578 6.4668L29.0992 1.81836C29.0344 1.46859 28.8648 1.14681 28.6128 0.895769C28.3607 0.644728 28.0383 0.47631 27.6883 0.412891L27.5406 0.385547C24.6914 -0.128516 21.6945 -0.128516 18.8453 0.385547L18.6977 0.412891C18.3476 0.47631 18.0252 0.644728 17.7732 0.895769C17.5212 1.14681 17.3515 1.46859 17.2867 1.81836L16.4227 6.48867C14.4588 7.23258 12.6299 8.29295 11.0086 9.62773L6.5297 8.03633C6.19482 7.91788 5.83184 7.90415 5.48897 7.99695C5.1461 8.08975 4.83959 8.28469 4.61017 8.55586L4.51173 8.6707C2.61815 10.9026 1.14175 13.4572 0.153136 16.2121L0.103917 16.3543C-0.142177 17.0379 0.0601674 17.8035 0.612511 18.2793L4.23829 21.3746C4.06876 22.4027 3.98673 23.4527 3.98673 24.4973C3.98673 25.5473 4.06876 26.5973 4.23829 27.6199L0.612511 30.7152C0.342331 30.9465 0.14896 31.2546 0.058111 31.5984C-0.0327385 31.9423 -0.0167617 32.3057 0.103917 32.6402L0.153136 32.7824C1.14298 35.5387 2.6086 38.0816 4.51173 40.3238L4.61017 40.4387C4.84015 40.7091 5.14667 40.9035 5.48934 40.9962C5.832 41.089 6.19472 41.0757 6.5297 40.9582L11.0086 39.3668C12.6383 40.7066 14.4594 41.7676 16.4227 42.5059L17.2867 47.1762C17.3515 47.5259 17.5212 47.8477 17.7732 48.0988C18.0252 48.3498 18.3476 48.5182 18.6977 48.5816L18.8453 48.609C21.7207 49.1258 24.6652 49.1258 27.5406 48.609L27.6883 48.5816C28.0383 48.5182 28.3607 48.3498 28.6128 48.0988C28.8648 47.8477 29.0344 47.5259 29.0992 47.1762L29.9578 42.5277C31.9367 41.7859 33.7791 40.7215 35.4102 39.3777L39.8563 40.9582C40.1911 41.0766 40.5541 41.0904 40.897 40.9976C41.2399 40.9048 41.5464 40.7098 41.7758 40.4387L41.8742 40.3238C43.7774 38.0762 45.243 35.5387 46.2328 32.7824L46.282 32.6402C46.5281 31.9676 46.3258 31.202 45.7734 30.7262ZM38.3086 21.9871C38.4453 22.8129 38.5164 23.6605 38.5164 24.5082C38.5164 25.3559 38.4453 26.2035 38.3086 27.0293L37.9477 29.2223L42.0328 32.7168C41.4135 34.1435 40.6318 35.4941 39.7031 36.7418L34.6281 34.9426L32.9109 36.3535C31.6039 37.4254 30.1492 38.2676 28.5742 38.8582L26.4906 39.6402L25.5117 44.9449C23.9672 45.1199 22.4078 45.1199 20.8633 44.9449L19.8844 39.6293L17.8172 38.8363C16.2586 38.2457 14.8094 37.4035 13.5133 36.3371L11.7961 34.9207L6.68829 36.7363C5.7586 35.484 4.98204 34.1332 4.3586 32.7113L8.48751 29.184L8.13204 26.9965C8.00079 26.1816 7.9297 25.3394 7.9297 24.5082C7.9297 23.6715 7.99532 22.8348 8.13204 22.0199L8.48751 19.8324L4.3586 16.3051C4.97657 14.8777 5.7586 13.5324 6.68829 12.2801L11.7961 14.0957L13.5133 12.6793C14.8094 11.6129 16.2586 10.7707 17.8172 10.1801L19.8899 9.39805L20.8688 4.08242C22.4055 3.90742 23.975 3.90742 25.5172 4.08242L26.4961 9.38711L28.5797 10.1691C30.1492 10.7598 31.6094 11.602 32.9164 12.6738L34.6336 14.0848L39.7086 12.2855C40.6383 13.5379 41.4149 14.8887 42.0383 16.3105L37.9531 19.8051L38.3086 21.9871ZM23.1984 14.3363C17.8828 14.3363 13.5734 18.6457 13.5734 23.9613C13.5734 29.2769 17.8828 33.5863 23.1984 33.5863C28.5141 33.5863 32.8234 29.2769 32.8234 23.9613C32.8234 18.6457 28.5141 14.3363 23.1984 14.3363ZM27.5297 28.2926C26.9616 28.8623 26.2865 29.3141 25.5432 29.6219C24.7998 29.9297 24.003 30.0876 23.1984 30.0863C21.5633 30.0863 20.0266 29.4465 18.8672 28.2926C18.2975 27.7245 17.8457 27.0494 17.5379 26.306C17.23 25.5627 17.0722 24.7659 17.0734 23.9613C17.0734 22.3262 17.7133 20.7894 18.8672 19.6301C20.0266 18.4707 21.5633 17.8363 23.1984 17.8363C24.8336 17.8363 26.3703 18.4707 27.5297 19.6301C28.0994 20.1982 28.5512 20.8733 28.859 21.6166C29.1669 22.3599 29.3247 23.1568 29.3234 23.9613C29.3234 25.5965 28.6836 27.1332 27.5297 28.2926Z" fill="white"/>
</svg>
