<svg width="47" height="42" viewBox="0 0 47 42" fill="none" xmlns="http://www.w3.org/2000/svg">
<path d="M23.2706 3.63533C20.7282 1.29758 17.4004 0.000108625 13.9466 0C12.1186 0.00190331 10.3089 0.365306 8.62181 1.06929C6.93473 1.77328 5.40351 2.80395 4.11629 4.102C-1.37404 9.61567 -1.37171 18.2397 4.12096 23.73L21.229 40.838C21.6256 41.5357 22.391 41.986 23.2706 41.986C23.6318 41.9825 23.9872 41.8943 24.3081 41.7286C24.6291 41.5628 24.9067 41.3241 25.1186 41.0317L42.4203 23.73C47.913 18.2373 47.913 9.61567 42.4156 4.09267C41.1291 2.79701 39.5991 1.76843 37.9136 1.06606C36.2282 0.363696 34.4206 0.00139908 32.5946 0C29.1409 0.000564571 25.8133 1.29797 23.2706 3.63533V3.63533ZM39.1163 7.392C42.7633 11.0577 42.7656 16.7837 39.121 20.4307L23.2706 36.281L7.42029 20.4307C3.77562 16.7837 3.77796 11.0577 7.41563 7.40133C9.18896 5.63733 11.5083 4.66667 13.9466 4.66667C16.385 4.66667 18.695 5.63733 20.4543 7.39667L21.621 8.56333C21.8375 8.78021 22.0946 8.95226 22.3777 9.06965C22.6607 9.18704 22.9642 9.24747 23.2706 9.24747C23.5771 9.24747 23.8805 9.18704 24.1636 9.06965C24.4466 8.95226 24.7038 8.78021 24.9203 8.56333L26.087 7.39667C29.615 3.87567 35.593 3.885 39.1163 7.392V7.392Z" fill="white"/>
</svg>
