<svg width="47" height="49" viewBox="0 0 47 49" fill="none" xmlns="http://www.w3.org/2000/svg">
<path d="M44.4508 39.9656C43.2903 37.2166 41.6061 34.7195 39.4921 32.6136C37.3845 30.5015 34.8878 28.8176 32.14 27.6548C32.1154 27.6425 32.0908 27.6363 32.0662 27.624C35.8991 24.8555 38.3908 20.3458 38.3908 15.2578C38.3908 6.8291 31.5617 0 23.133 0C14.7043 0 7.87515 6.8291 7.87515 15.2578C7.87515 20.3458 10.3669 24.8555 14.1998 27.6302C14.1752 27.6425 14.1505 27.6486 14.1259 27.6609C11.3697 28.8237 8.89644 30.491 6.77388 32.6197C4.66184 34.7273 2.97792 37.224 1.8151 39.9718C0.672741 42.6619 0.0566442 45.5461 0.000153846 48.4682C-0.00148825 48.5338 0.0100291 48.5992 0.0340276 48.6603C0.0580261 48.7214 0.09402 48.7772 0.139888 48.8242C0.185757 48.8712 0.240572 48.9086 0.301103 48.9341C0.361634 48.9596 0.426658 48.9727 0.492341 48.9727H4.18375C4.45445 48.9727 4.66978 48.7573 4.67594 48.4928C4.79898 43.7432 6.70621 39.295 10.0777 35.9235C13.5661 32.4352 18.1988 30.5156 23.133 30.5156C28.0671 30.5156 32.6999 32.4352 36.1882 35.9235C39.5597 39.295 41.4669 43.7432 41.59 48.4928C41.5961 48.7635 41.8115 48.9727 42.0822 48.9727H45.7736C45.8393 48.9727 45.9043 48.9596 45.9648 48.9341C46.0254 48.9086 46.0802 48.8712 46.126 48.8242C46.1719 48.7772 46.2079 48.7214 46.2319 48.6603C46.2559 48.5992 46.2674 48.5338 46.2658 48.4682C46.2043 45.5273 45.5952 42.6665 44.4508 39.9656V39.9656ZM23.133 25.8398C20.309 25.8398 17.6512 24.7386 15.6517 22.7391C13.6522 20.7396 12.5509 18.0817 12.5509 15.2578C12.5509 12.4339 13.6522 9.77607 15.6517 7.77656C17.6512 5.77705 20.309 4.67578 23.133 4.67578C25.9569 4.67578 28.6147 5.77705 30.6142 7.77656C32.6137 9.77607 33.715 12.4339 33.715 15.2578C33.715 18.0817 32.6137 20.7396 30.6142 22.7391C28.6147 24.7386 25.9569 25.8398 23.133 25.8398Z" fill="white"/>
</svg>
