<svg width="37" height="46" viewBox="0 0 37 46" fill="none" xmlns="http://www.w3.org/2000/svg">
<path d="M18.3333 0C12.0152 0 6.875 5.14021 6.875 11.4583V16.0417H4.58333C2.05562 16.0417 0 18.0973 0 20.625V41.25C0 43.7777 2.05562 45.8333 4.58333 45.8333H32.0833C34.611 45.8333 36.6667 43.7777 36.6667 41.25V20.625C36.6667 18.0973 34.611 16.0417 32.0833 16.0417H29.7917V11.4583C29.7917 5.14021 24.6515 0 18.3333 0ZM11.4583 11.4583C11.4583 7.66792 14.5429 4.58333 18.3333 4.58333C22.1237 4.58333 25.2083 7.66792 25.2083 11.4583V16.0417H11.4583V11.4583ZM32.0879 41.25H20.625V36.0296C21.9885 35.2344 22.9167 33.7723 22.9167 32.0833C22.9167 29.5556 20.861 27.5 18.3333 27.5C15.8056 27.5 13.75 29.5556 13.75 32.0833C13.75 33.77 14.6781 35.2344 16.0417 36.0296V41.25H4.58333V20.625H32.0833L32.0879 41.25Z" fill="white"/>
</svg>
