<svg width="61" height="52" viewBox="0 0 61 52" fill="none" xmlns="http://www.w3.org/2000/svg">
<path d="M50.8333 48.2351L57.0604 52L55.4083 44.8998L61 40.1495L53.6546 39.5179L50.8333 32.8473L47.9612 39.5179L40.6667 40.1495L46.2075 44.8998L44.4792 52L50.8333 48.2351ZM35.7867 45.481H5.08333C3.75004 45.4345 2.48407 44.8871 1.54071 43.9493C0.597355 43.0115 0.0467805 41.753 0 40.4275V5.05334C0.101667 2.29919 2.31291 0.10107 5.08333 0H55.9167C58.6871 0.10107 60.8983 2.29919 61 5.05334V31.6597C59.5258 30.3205 57.8229 29.3351 55.9167 28.6529V5.05334H5.08333V40.4275H35.7867C35.6596 41.2613 35.5833 42.0951 35.5833 42.9542C35.5833 43.8133 35.6596 44.6724 35.7867 45.481Z" fill="white"/>
</svg>
