<svg width="24" height="24" viewBox="0 0 24 24" fill="none" xmlns="http://www.w3.org/2000/svg">
<path d="M12 2.49625C17.292 2.49625 21.6 6.74913 21.6 11.9734C21.6 17.1977 17.292 21.4506 12 21.4506C6.708 21.4506 2.4 17.1977 2.4 11.9734C2.4 6.74913 6.708 2.49625 12 2.49625ZM12 0.126953C5.3724 0.126953 0 5.43062 0 11.9734C0 18.5162 5.3724 23.8199 12 23.8199C18.6276 23.8199 24 18.5162 24 11.9734C24 5.43062 18.6276 0.126953 12 0.126953ZM18 11.7888C18 11.2365 17.5523 10.7888 17 10.7888H14.2C13.6477 10.7888 13.2 10.3411 13.2 9.78877V7.05019C13.2 6.4979 12.7523 6.05019 12.2 6.05019H11.8C11.2477 6.05019 10.8 6.4979 10.8 7.05019V9.78877C10.8 10.3411 10.3523 10.7888 9.8 10.7888H7C6.44771 10.7888 6 11.2365 6 11.7888V12.1581C6 12.7104 6.44772 13.1581 7 13.1581H9.8C10.3523 13.1581 10.8 13.6058 10.8 14.1581V16.8967C10.8 17.4489 11.2477 17.8967 11.8 17.8967H12.2C12.7523 17.8967 13.2 17.4489 13.2 16.8967V14.1581C13.2 13.6058 13.6477 13.1581 14.2 13.1581H17C17.5523 13.1581 18 12.7104 18 12.1581V11.7888Z" fill="#FFB800"/>
</svg>
