<svg width="50" height="48" viewBox="0 0 50 48" fill="none" xmlns="http://www.w3.org/2000/svg">
<path d="M48.9118 24C48.9118 36.9651 38.0882 47.5 24.7059 47.5C11.3236 47.5 0.5 36.9651 0.5 24C0.5 11.0349 11.3236 0.5 24.7059 0.5C38.0882 0.5 48.9118 11.0349 48.9118 24Z" fill="black" fill-opacity="0.58" stroke="#E7E7E7"/>
<path d="M38.4635 18.7134L30.271 17.5071L26.6093 10.0088C25.9533 8.67224 24.0523 8.65525 23.3907 10.0088L19.729 17.5071L11.5365 18.7134C10.0673 18.9286 9.47853 20.7579 10.544 21.8056L16.471 27.6388L15.0692 35.879C14.8168 37.3685 16.3701 38.4842 17.671 37.7876L25 33.8969L32.329 37.7876C33.6299 38.4785 35.1832 37.3685 34.9308 35.879L33.529 27.6388L39.456 21.8056C40.5215 20.7579 39.9327 18.9286 38.4635 18.7134ZM30.6411 26.6874L31.9701 34.5255L25 30.8273L18.0299 34.5255L19.3589 26.6874L13.7178 21.1373L21.5122 19.9933L25 12.8575L28.4878 19.9933L36.2822 21.1373L30.6411 26.6874Z" fill="#E6E6E6"/>
</svg>
