<svg width="218" height="178" viewBox="0 0 218 178" fill="none" xmlns="http://www.w3.org/2000/svg">
<path d="M71.875 78H28.125C22.9553 78 18.75 82.2053 18.75 87.375V168.625C18.75 173.795 22.9553 178 28.125 178H71.875C77.0447 178 81.25 173.795 81.25 168.625V87.375C81.25 82.2053 77.0447 78 71.875 78ZM28.125 84.25H71.875C73.5992 84.25 75 85.6508 75 87.375V153H25V87.375C25 85.6508 26.4008 84.25 28.125 84.25ZM71.875 171.75H28.125C26.4008 171.75 25 170.349 25 168.625V159.25H75V168.625C75 170.349 73.5992 171.75 71.875 171.75Z" fill="white"/>
<path d="M52.2098 163.29C53.4303 164.511 53.4303 166.489 52.2098 167.71C50.9894 168.93 49.0108 168.93 47.7903 167.71C46.5699 166.489 46.5699 164.511 47.7903 163.29C49.0108 162.07 50.9894 162.07 52.2098 163.29Z" fill="#F5F5F5"/>
<g clip-path="url(#clip0)">
<path d="M185.188 0H100.813C93.058 0 86.75 6.30795 86.75 14.0625V135.937C86.75 143.692 93.058 150 100.813 150H185.188C192.942 150 199.25 143.692 199.25 135.937V14.0625C199.25 6.30795 192.942 0 185.188 0ZM100.813 9.375H185.188C187.774 9.375 189.875 11.4761 189.875 14.0625V112.5H96.125V14.0625C96.125 11.4761 98.2261 9.375 100.813 9.375ZM185.188 140.625H100.813C98.2261 140.625 96.125 138.524 96.125 135.937V121.875H189.875V135.937C189.875 138.524 187.774 140.625 185.188 140.625Z" fill="white"/>
<path d="M146.314 127.936C148.145 129.766 148.145 132.734 146.314 134.565C144.484 136.395 141.516 136.395 139.685 134.565C137.854 132.734 137.854 129.766 139.685 127.936C141.516 126.105 144.484 126.105 146.314 127.936Z" fill="#F5F5F5"/>
</g>
<defs>
<clipPath id="clip0">
<rect x="68" width="150" height="150" fill="white"/>
</clipPath>
</defs>
</svg>
