<svg width="181" height="178" viewBox="0 0 181 178" fill="none" xmlns="http://www.w3.org/2000/svg">
<path fill-rule="evenodd" clip-rule="evenodd" d="M166.438 0H82.0625C74.308 0 68 6.30795 68 14.0625V135.938C68 143.692 74.308 150 82.0625 150H166.438C174.192 150 180.5 143.692 180.5 135.938V14.0625C180.5 6.30795 174.192 0 166.438 0ZM82.0625 9.375H166.438C169.024 9.375 171.125 11.4761 171.125 14.0625V112.5H77.375V14.0625C77.375 11.4761 79.4761 9.375 82.0625 9.375ZM166.438 140.625H82.0625C79.4761 140.625 77.375 138.524 77.375 135.938V121.875H171.125V135.938C171.125 138.524 169.024 140.625 166.438 140.625ZM127.565 127.936C129.395 129.766 129.395 132.734 127.565 134.565C125.734 136.395 122.766 136.395 120.935 134.565C119.105 132.734 119.105 129.766 120.935 127.936C122.766 126.105 125.734 126.105 127.565 127.936ZM53.125 78H9.375C4.2053 78 0 82.2053 0 87.375V168.625C0 173.795 4.2053 178 9.375 178H53.125C58.2947 178 62.5 173.795 62.5 168.625V87.375C62.5 82.2053 58.2947 78 53.125 78ZM9.375 84.25H53.125C54.8492 84.25 56.25 85.6508 56.25 87.375V153H6.25V87.375C6.25 85.6508 7.65076 84.25 9.375 84.25ZM53.125 171.75H9.375C7.65076 171.75 6.25 170.349 6.25 168.625V159.25H56.25V168.625C56.25 170.349 54.8492 171.75 53.125 171.75ZM33.4596 163.29C34.6801 164.511 34.6801 166.489 33.4596 167.71C32.2391 168.93 30.2605 168.93 29.0401 167.71C27.8196 166.489 27.8196 164.511 29.0401 163.29C30.2605 162.07 32.2391 162.07 33.4596 163.29Z" fill="#F5F5F5"/>
</svg>
