<svg width="33" height="33" viewBox="0 0 33 33" fill="none" xmlns="http://www.w3.org/2000/svg">
<path d="M22 5.5C22 4.74061 22.6156 4.125 23.375 4.125H28.25C29.3546 4.125 30.25 5.02043 30.25 6.125V11C30.25 11.7594 29.6344 12.375 28.875 12.375C28.1156 12.375 27.5 11.7594 27.5 11V8.875C27.5 7.77043 26.6046 6.875 25.5 6.875H23.375C22.6156 6.875 22 6.25939 22 5.5ZM2.75 6.125C2.75 5.02043 3.64543 4.125 4.75 4.125H9.625C10.3844 4.125 11 4.74061 11 5.5C11 6.25939 10.3844 6.875 9.625 6.875H7.5C6.39543 6.875 5.5 7.77043 5.5 8.875V11C5.5 11.7594 4.88439 12.375 4.125 12.375C3.36561 12.375 2.75 11.7594 2.75 11V6.125ZM25.5 26.125C26.6046 26.125 27.5 25.2296 27.5 24.125V22C27.5 21.2406 28.1156 20.625 28.875 20.625C29.6344 20.625 30.25 21.2406 30.25 22V26.875C30.25 27.9796 29.3546 28.875 28.25 28.875H23.375C22.6156 28.875 22 28.2594 22 27.5C22 26.7406 22.6156 26.125 23.375 26.125H25.5ZM5.5 24.125C5.5 25.2296 6.39543 26.125 7.5 26.125H9.625C10.3844 26.125 11 26.7406 11 27.5C11 28.2594 10.3844 28.875 9.625 28.875H4.75C3.64543 28.875 2.75 27.9796 2.75 26.875V22C2.75 21.2406 3.36561 20.625 4.125 20.625C4.88439 20.625 5.5 21.2406 5.5 22V24.125Z" fill="white"/>
</svg>
