<svg width="150" height="150" viewBox="0 0 150 150" fill="none" xmlns="http://www.w3.org/2000/svg">
<path d="M121.1 77.5998L54.8563 121.762C54.3857 122.075 53.8389 122.255 53.2743 122.282C52.7097 122.309 52.1483 122.182 51.65 121.916C51.1517 121.649 50.735 121.252 50.4445 120.767C50.1539 120.282 50.0003 119.728 50 119.162V30.8373C50.0003 30.272 50.1539 29.7174 50.4445 29.2325C50.735 28.7477 51.1517 28.3507 51.65 28.0839C52.1483 27.8171 52.7097 27.6904 53.2743 27.7174C53.8389 27.7444 54.3857 27.9241 54.8563 28.2373L121.1 72.3997C121.528 72.6851 121.879 73.0718 122.122 73.5253C122.364 73.9789 122.491 74.4853 122.491 74.9998C122.491 75.5142 122.364 76.0206 122.122 76.4742C121.879 76.9277 121.528 77.3144 121.1 77.5998Z" fill="white"/>
</svg>
