<svg width="33" height="33" viewBox="0 0 33 33" fill="none" xmlns="http://www.w3.org/2000/svg">
<path d="M13.75 9.92655L9.07913 13.7491H4.125V19.2491H9.07913L13.75 23.0716V9.92655ZM8.09737 21.9991H2.75C2.38533 21.9991 2.03559 21.8542 1.77773 21.5963C1.51987 21.3385 1.375 20.9887 1.375 20.6241V12.3741C1.375 12.0094 1.51987 11.6596 1.77773 11.4018C2.03559 11.1439 2.38533 10.9991 2.75 10.9991H8.09737L15.3766 5.04255C15.4773 4.95998 15.5994 4.90772 15.7287 4.89184C15.858 4.87597 15.9891 4.89715 16.1068 4.9529C16.2245 5.00865 16.324 5.09669 16.3936 5.20677C16.4632 5.31685 16.5001 5.44444 16.5 5.57468V27.4234C16.5001 27.5537 16.4632 27.6813 16.3936 27.7913C16.324 27.9014 16.2245 27.9895 16.1068 28.0452C15.9891 28.101 15.858 28.1221 15.7287 28.1063C15.5994 28.0904 15.4773 28.0381 15.3766 27.9556L8.09875 21.9991H8.09737ZM28.0693 16.4991L32.9313 21.3611L30.987 23.3053L26.125 18.4433L21.263 23.3053L19.3188 21.3611L24.1807 16.4991L19.3188 11.6371L21.263 9.6928L26.125 14.5548L30.987 9.6928L32.9313 11.6371L28.0693 16.4991Z" fill="white"/>
</svg>
