<svg width="33" height="33" viewBox="0 0 33 33" fill="none" xmlns="http://www.w3.org/2000/svg">
<path d="M22 17.4171L7.94337 26.7878C7.83984 26.8566 7.71957 26.8962 7.59535 26.9021C7.47113 26.9081 7.34763 26.8802 7.238 26.8215C7.12837 26.7628 7.03671 26.6755 6.97278 26.5688C6.90886 26.4621 6.87506 26.3401 6.875 26.2157V6.78425C6.87506 6.65989 6.90886 6.53788 6.97278 6.43121C7.03671 6.32454 7.12837 6.2372 7.238 6.17851C7.34763 6.11981 7.47113 6.09195 7.59535 6.09789C7.71957 6.10383 7.83984 6.14336 7.94337 6.21225L22 15.5829V6.875C22 6.51033 22.1449 6.16059 22.4027 5.90273C22.6606 5.64487 23.0103 5.5 23.375 5.5C23.7397 5.5 24.0894 5.64487 24.3473 5.90273C24.6051 6.16059 24.75 6.51033 24.75 6.875V26.125C24.75 26.4897 24.6051 26.8394 24.3473 27.0973C24.0894 27.3551 23.7397 27.5 23.375 27.5C23.0103 27.5 22.6606 27.3551 22.4027 27.0973C22.1449 26.8394 22 26.4897 22 26.125V17.4171ZM9.625 10.6384V22.3616L18.4167 16.5L9.625 10.6384Z" fill="white"/>
</svg>
