<svg width="66" height="66" viewBox="0 0 66 66" fill="none" xmlns="http://www.w3.org/2000/svg">
<path d="M51.4999 35.75C50.3953 35.75 49.5126 36.6497 49.38 37.7463C48.3924 45.9098 41.4268 52.25 32.9999 52.25C23.8974 52.25 16.4999 44.8525 16.4999 35.75C16.4999 27.3231 22.84 20.3575 31.0036 19.3699C32.1002 19.2373 32.9999 20.1454 32.9999 21.25V25.4216C32.9999 27.2034 35.1542 28.0957 36.4141 26.8358L45.3357 17.9142C46.1167 17.1332 46.1167 15.8668 45.3357 15.0858L36.4141 6.16421C35.1542 4.90428 32.9999 5.79662 32.9999 7.57843V11.75C32.9999 12.8546 32.1015 13.7405 31.0014 13.8394C19.7838 14.8484 10.9999 24.2687 10.9999 35.75C10.9999 47.905 20.8449 57.75 32.9999 57.75C44.4812 57.75 53.9015 48.9661 54.9104 37.7485C55.0094 36.6484 54.1045 35.75 52.9999 35.75H51.4999Z" fill="white"/>
<path d="M29.865 43.835V32.0925H29.6175L24.75 33.825V35.7225L27.5275 34.87V43.835H29.865ZM33.6875 36.96V38.995C33.6875 44.22 37.29 44 37.6475 44C38.0325 44 41.6075 44.2475 41.6075 38.995V36.96C41.6075 31.735 38.005 31.955 37.6475 31.955C37.2625 31.955 33.6875 31.7075 33.6875 36.96ZM39.2975 36.63V39.2975C39.2975 41.415 38.72 42.13 37.675 42.13C36.63 42.13 36.025 41.415 36.025 39.2975V36.63C36.025 34.5675 36.63 33.8525 37.6475 33.8525C38.6925 33.825 39.2975 34.5675 39.2975 36.63Z" fill="white"/>
</svg>
