<svg width="66" height="66" viewBox="0 0 66 66" fill="none" xmlns="http://www.w3.org/2000/svg">
<path d="M33 60.5C17.8118 60.5 5.5 48.1882 5.5 33C5.5 17.8118 17.8118 5.5 33 5.5C48.1882 5.5 60.5 17.8118 60.5 33C60.5 48.1882 48.1882 60.5 33 60.5ZM33 55C38.8348 55 44.4306 52.6822 48.5564 48.5564C52.6822 44.4306 55 38.8348 55 33C55 27.1652 52.6822 21.5695 48.5564 17.4437C44.4306 13.3179 38.8348 11 33 11C27.1652 11 21.5695 13.3179 17.4437 17.4437C13.3179 21.5695 11 27.1652 11 33C11 38.8348 13.3179 44.4306 17.4437 48.5564C21.5695 52.6822 27.1652 55 33 55ZM24.75 24.75H30.25V41.25H24.75V24.75ZM35.75 24.75H41.25V41.25H35.75V24.75Z" fill="#F5F5F5"/>
</svg>
