<svg width="66" height="66" viewBox="0 0 66 66" fill="none" xmlns="http://www.w3.org/2000/svg">
<path d="M33 60.5C17.8118 60.5 5.5 48.1882 5.5 33C5.5 17.8118 17.8118 5.5 33 5.5C48.1882 5.5 60.5 17.8118 60.5 33C60.5 48.1882 48.1882 60.5 33 60.5ZM33 55C38.8348 55 44.4305 52.6822 48.5564 48.5564C52.6822 44.4305 55 38.8348 55 33C55 27.1652 52.6822 21.5695 48.5564 17.4437C44.4305 13.3179 38.8348 11 33 11C27.1652 11 21.5695 13.3179 17.4437 17.4437C13.3179 21.5695 11 27.1652 11 33C11 38.8348 13.3179 44.4305 17.4437 48.5564C21.5695 52.6822 27.1652 55 33 55ZM29.2105 23.1413L42.6278 32.0842C42.7786 32.1847 42.9024 32.3208 42.988 32.4806C43.0735 32.6403 43.1183 32.8188 43.1183 33C43.1183 33.1812 43.0735 33.3597 42.988 33.5194C42.9024 33.6792 42.7786 33.8153 42.6278 33.9158L29.2078 42.8587C29.0423 42.9684 28.8502 43.0313 28.6519 43.0407C28.4536 43.05 28.2564 43.0056 28.0814 42.912C27.9063 42.8184 27.7598 42.6791 27.6575 42.509C27.5551 42.3389 27.5007 42.1443 27.5 41.9458V24.0542C27.5004 23.8553 27.5547 23.6602 27.6572 23.4896C27.7597 23.3191 27.9065 23.1796 28.082 23.0859C28.2575 22.9922 28.4552 22.9479 28.6539 22.9576C28.8526 22.9674 29.045 23.0308 29.2105 23.1413Z" fill="white"/>
</svg>
