<svg width="33" height="33" viewBox="0 0 33 33" fill="none" xmlns="http://www.w3.org/2000/svg">
<g clip-path="url(#clip0)">
<path d="M32.4664 31.35H0.566418C0.262818 31.35 0.0164185 31.1042 0.0164185 30.8V8.8C0.0164185 8.49585 0.262818 8.25 0.566418 8.25H32.4664C32.77 8.25 33.0164 8.49585 33.0164 8.8V30.8C33.0164 31.1042 32.77 31.35 32.4664 31.35ZM1.11642 30.25H31.9164V9.35H1.11642V30.25Z" fill="white"/>
<path d="M29.1665 9.34922H3.86647C3.56287 9.34922 3.31647 9.10337 3.31647 8.79922V5.49922C3.31647 5.19507 3.56287 4.94922 3.86647 4.94922H29.1665C29.4701 4.94922 29.7165 5.19507 29.7165 5.49922V8.79922C29.7165 9.10337 29.4701 9.34922 29.1665 9.34922ZM4.41647 8.24922H28.6165V6.04922H4.41647V8.24922Z" fill="white"/>
<path d="M25.8665 6.05039H7.16646C6.86286 6.05039 6.61646 5.80454 6.61646 5.50039V2.20039C6.61646 1.89624 6.86286 1.65039 7.16646 1.65039H25.8665C26.1701 1.65039 26.4165 1.89624 26.4165 2.20039V5.50039C26.4165 5.80454 26.1701 6.05039 25.8665 6.05039ZM7.71646 4.95039H25.3165V2.75039H7.71646V4.95039Z" fill="white"/>
<path d="M13.7802 24.7845C13.5882 24.7845 13.3963 24.7339 13.2208 24.6332C12.8738 24.4336 12.6664 24.0766 12.6664 23.679V15.4059C12.6664 15.0077 12.8738 14.6513 13.2208 14.4516C13.5668 14.252 13.9974 14.2536 14.3428 14.4533L21.4659 18.5904C21.8107 18.79 22.0164 19.1464 22.0164 19.5424C22.0164 19.9384 21.8107 20.2943 21.4659 20.4945L14.3428 24.6311C14.1668 24.7333 13.9732 24.7845 13.7802 24.7845ZM13.7901 15.4037L13.7664 23.6784V23.6806L20.9131 19.543L13.7901 15.4037Z" fill="white"/>
</g>
<defs>
<clipPath id="clip0">
<rect width="33" height="33" fill="white"/>
</clipPath>
</defs>
</svg>
