<svg width="66" height="66" viewBox="0 0 66 66" fill="none" xmlns="http://www.w3.org/2000/svg">
<path d="M14.5001 35.75C15.6047 35.75 16.4874 36.6497 16.62 37.7463C17.6076 45.9098 24.5732 52.25 33.0001 52.25C42.1026 52.25 49.5001 44.8525 49.5001 35.75C49.5001 27.3231 43.16 20.3575 34.9964 19.3699C33.8998 19.2373 33.0001 20.1454 33.0001 21.25V25.4216C33.0001 27.2034 30.8458 28.0957 29.5859 26.8358L20.6643 17.9142C19.8833 17.1332 19.8833 15.8668 20.6643 15.0858L29.5859 6.16421C30.8458 4.90428 33.0001 5.79662 33.0001 7.57843V11.75C33.0001 12.8546 33.8985 13.7405 34.9986 13.8394C46.2162 14.8484 55.0001 24.2687 55.0001 35.75C55.0001 47.905 45.1551 57.75 33.0001 57.75C21.5188 57.75 12.0985 48.9661 11.0896 37.7485C10.9906 36.6484 11.8955 35.75 13.0001 35.75H14.5001Z" fill="white"/>
<path d="M29.5076 43.835V32.0925H29.2601L24.3926 33.825V35.7225L27.1701 34.87V43.835H29.5076ZM33.3301 36.96V38.995C33.3301 44.22 36.9326 44 37.2901 44C37.6751 44 41.2501 44.2475 41.2501 38.995V36.96C41.2501 31.735 37.6476 31.955 37.2901 31.955C36.9051 31.955 33.3301 31.7075 33.3301 36.96ZM38.9401 36.63V39.2975C38.9401 41.415 38.3626 42.13 37.3176 42.13C36.2726 42.13 35.6676 41.415 35.6676 39.2975V36.63C35.6676 34.5675 36.2726 33.8525 37.2901 33.8525C38.3351 33.825 38.9401 34.5675 38.9401 36.63Z" fill="white"/>
</svg>
