<svg width="33" height="33" viewBox="0 0 33 33" fill="none" xmlns="http://www.w3.org/2000/svg">
<path d="M13.75 9.92753L9.07913 13.75H4.125V19.25H9.07913L13.75 23.0725V9.92753ZM8.09737 22H2.75C2.38533 22 2.03559 21.8552 1.77773 21.5973C1.51987 21.3394 1.375 20.9897 1.375 20.625V12.375C1.375 12.0104 1.51987 11.6606 1.77773 11.4028C2.03559 11.1449 2.38533 11 2.75 11H8.09737L15.3766 5.04353C15.4773 4.96096 15.5994 4.90869 15.7287 4.89282C15.858 4.87695 15.9891 4.89812 16.1068 4.95388C16.2245 5.00963 16.324 5.09767 16.3936 5.20775C16.4632 5.31783 16.5001 5.44541 16.5 5.57565V27.4244C16.5001 27.5546 16.4632 27.6822 16.3936 27.7923C16.324 27.9024 16.2245 27.9904 16.1068 28.0462C15.9891 28.1019 15.858 28.1231 15.7287 28.1072C15.5994 28.0914 15.4773 28.0391 15.3766 27.9565L8.09875 22H8.09737ZM26.6833 27.6843L24.7362 25.7373C26.0397 24.5775 27.0825 23.1546 27.7959 21.5624C28.5093 19.9701 28.8771 18.2448 28.875 16.5C28.8767 14.6659 28.4699 12.8544 27.6841 11.1972C26.8982 9.53991 25.7532 8.07848 24.332 6.91903L26.2845 4.96653C27.9599 6.38491 29.3057 8.15169 30.2281 10.1437C31.1505 12.1357 31.6272 14.3049 31.625 16.5C31.625 20.9317 29.7192 24.9178 26.6833 27.6843ZM21.8116 22.8127L19.8564 20.8574C20.5239 20.3441 21.0644 19.6842 21.4361 18.9286C21.8078 18.173 22.0008 17.3421 22 16.5C22 14.5338 20.9688 12.8082 19.415 11.836L21.3936 9.8574C22.4351 10.6235 23.2817 11.6241 23.8647 12.7781C24.4478 13.9321 24.7511 15.2071 24.75 16.5C24.75 19.0328 23.6087 21.2988 21.8116 22.8127Z" fill="white"/>
</svg>
